<svg id="Calque_1" data-name="Calque 1" xmlns="http://www.w3.org/2000/svg" viewBox="0 0 565.97 201.57"><defs><style>.cls-1{fill:#004494;}.cls-2{fill:#e2001a;}</style></defs><title>AFE_logo_RVB_coul</title><path class="cls-1" d="M343.33,68.49h-38.5V144.7h38.5c24.75,0,36.1-18.45,36.1-38.28S368.08,68.49,343.33,68.49Zm-4.58,60.28H325V84.42h13.76c13.75,0,19.59,7.1,19.59,22C358.34,121.09,352.61,128.77,338.75,128.77Z"/><path class="cls-1" d="M257.9,66.4c-23.41,0-39.33,15.72-39.33,40.05,0,24.88,15.56,40.33,39.33,40.33,29,0,35.59-20.06,36.71-28.79H275.16c-2,7.33-7.66,12.11-16.85,12.11-12.95,0-19.44-9.43-19.31-19.41h56.43a42.14,42.14,0,0,0,.56-6.14c.27-11.34-3.18-21-10-27.85S268.9,66.4,257.9,66.4Zm-18.27,31c1-8.14,8.46-14.36,18.33-14.36s17.3,5.61,17.65,14.36Z"/><polygon class="cls-1" points="156.69 68.49 156.69 144.69 176.86 144.69 176.86 115.01 209.3 115.01 209.3 100.23 176.86 100.23 176.86 84.42 217.08 84.42 217.08 68.49 160.97 68.49 156.69 68.49"/><path class="cls-2" d="M87.47,124.2c.57,8,7.39,13.83,14,13.83,9.22,0,18-9.5,19-18.61a43.6,43.6,0,0,1-16.64,5.75C99.49,125.69,92.68,125.7,87.47,124.2Z"/><path class="cls-1" d="M126,68.49H100.31c-17.09,0-20.75,7.8-24.71,19.41L56.21,144.7H76.49L96.55,86.18c1-3.09,2.84-3.71,6.15-3.71h7.86l21.32,62.23h20.17Z"/><path class="cls-1" d="M466,102.59c8.43,0,16.95-2.65,23.61-9.3v51.4h20.16V68.49H493.63c-3.82,6.06-15.48,16.8-27.65,16.8s-23.83-10.74-27.65-16.8H422.21v76.2h20.16V93.29C449,99.94,457.55,102.59,466,102.59Z"/><circle class="cls-2" cx="398.94" cy="68.49" r="13.7"/><rect class="cls-1" x="389.08" y="89.7" width="19.71" height="54.99"/></svg>